0
SECTION
2
HEADER
9
$INSUNITS
70
4
9
$ACADVER
1
AC1014
9
$HANDSEED
5
FFFF
0
ENDSEC
0
SECTION
2
TABLES
0
TABLE
2
VPORT
5
8
100
AcDbSymbolTable
0
ENDTAB
0
TABLE
2
LTYPE
5
5
100
AcDbSymbolTable
0
LTYPE
5
14
100
AcDbSymbolTableRecord
100
AcDbLinetypeTableRecord
2
BYBLOCK
70
0
0
LTYPE
5
15
100
AcDbSymbolTableRecord
100
AcDbLinetypeTableRecord
2
BYLAYER
70
0
0
LTYPE
5
16
100
AcDbSymbolTableRecord
100
AcDbLinetypeTableRecord
2
DASHED
70
0
3
Dashed __ __ __ __ __ __ __ __ __ __ __ __ __ _
72
65
73
2
40
0.75
49
0.5
74
0
49
-0.25
74
0
0
ENDTAB
0
TABLE
2
LAYER
5
2
100
AcDbSymbolTable
70
2
0
LAYER
5
50
100
AcDbSymbolTableRecord
100
AcDbLayerTableRecord
2
0
70
0
62
7
6
CONTINUOUS
0
ENDTAB
0
TABLE
2
STYLE
5
3
100
AcDbSymbolTable
70
1
0
STYLE
5
11
100
AcDbSymbolTableRecord
100
AcDbTextStyleTableRecord
2
STANDARD
70
0
0
ENDTAB
0
TABLE
2
VIEW
5
6
100
AcDbSymbolTable
70
0
0
ENDTAB
0
TABLE
2
UCS
5
7
100
AcDbSymbolTable
70
0
0
ENDTAB
0
TABLE
2
APPID
5
9
100
AcDbSymbolTable
70
2
0
APPID
5
12
100
AcDbSymbolTableRecord
100
AcDbRegAppTableRecord
2
ACAD
70
0
0
ENDTAB
0
TABLE
2
DIMSTYLE
5
A
100
AcDbSymbolTable
70
1
0
ENDTAB
0
TABLE
2
BLOCK_RECORD
5
1
100
AcDbSymbolTable
70
1
0
BLOCK_RECORD
5
1F
100
AcDbSymbolTableRecord
100
AcDbBlockTableRecord
2
*MODEL_SPACE
0
BLOCK_RECORD
5
1B
100
AcDbSymbolTableRecord
100
AcDbBlockTableRecord
2
*PAPER_SPACE
0
ENDTAB
0
ENDSEC
0
SECTION
2
BLOCKS
0
BLOCK
5
20
100
AcDbEntity
100
AcDbBlockBegin
2
*MODEL_SPACE
0
ENDBLK
5
21
100
AcDbEntity
100
AcDbBlockEnd
0
BLOCK
5
1C
100
AcDbEntity
100
AcDbBlockBegin
2
*PAPER_SPACE
0
ENDBLK
5
1D
100
AcDbEntity
100
AcDbBlockEnd
0
ENDSEC
0
SECTION
2
ENTITIES
0
LWPOLYLINE
5
100
100
AcDbEntity
8
0
100
AcDbPolyline
90
4
70
1
43
0.0
10
2.5749999999999931
20
-54.777858453981601
10
16.625000000000011
20
-54.777858453981601
10
16.625000000000011
20
-37.93785845398159
10
2.574999999999994
20
-37.937858453981598
0
LWPOLYLINE
5
101
100
AcDbEntity
8
0
100
AcDbPolyline
90
4
70
1
43
0.0
10
-48.650000000000055
20
-54.854058453981608
10
-39.350000000000044
20
-54.854058453981608
10
-39.350000000000051
20
-43.854058453981601
10
-48.650000000000055
20
-43.854058453981601
0
LINE
5
102
100
AcDbEntity
8
0
100
AcDbLine
10
-0.37500000000000611
20
-37.937858453981598
30
0
11
0.012999999999993711
21
-37.937858453981598
31
-4.7739590058882328e-18
0
LINE
5
103
100
AcDbEntity
8
0
100
AcDbLine
10
0.22500040956363709
20
-37.937858453981598
30
0
11
0.012999999999921755
21
-37.937858453981598
31
-3.5305160389139979e-17
0
LINE
5
104
100
AcDbEntity
8
0
100
AcDbLine
10
0.22500013652130876
20
-54.777858453981601
30
0
11
0.22500013652130876
21
-37.937858453981598
31
-7.7900014390574875e-32
0
LINE
5
105
100
AcDbEntity
8
0
100
AcDbLine
10
-14.425000000000022
20
-37.937858453981598
30
0
11
-0.37500000000000533
21
-37.937858453981598
31
0
0
LINE
5
106
100
AcDbEntity
8
0
100
AcDbLine
10
-14.813000000000024
20
-37.937858453981598
30
0
11
-14.425000000000024
21
-37.937858453981598
31
-4.7739590058882328e-18
0
LINE
5
107
100
AcDbEntity
8
0
100
AcDbLine
10
-14.812999999999953
20
-37.937858453981598
30
0
11
-15.02500040956367
21
-37.937858453981598
31
-3.5305160389140694e-17
0
LINE
5
108
100
AcDbEntity
8
0
100
AcDbLine
10
-15.025000136521239
20
-54.777858453981601
30
0
11
-15.025000136521239
21
-37.93785845398159
31
0
0
LINE
5
109
100
AcDbEntity
8
0
100
AcDbLine
10
-15.02500040956367
20
-54.777858453981601
30
0
11
-14.812999999999949
21
-54.777858453981601
31
3.5305160389141063e-17
0
LINE
5
110
100
AcDbEntity
8
0
100
AcDbLine
10
-14.425000000000022
20
-54.777858453981601
30
0
11
-14.81300000000002
21
-54.777858453981601
31
4.7739590058882328e-18
0
LINE
5
111
100
AcDbEntity
8
0
100
AcDbLine
10
-0.37500000000000644
20
-54.777858453981601
30
0
11
-14.425000000000022
21
-54.777858453981601
31
0
0
LINE
5
112
100
AcDbEntity
8
0
100
AcDbLine
10
0.012999999999993368
20
-54.777858453981601
30
0
11
-0.37500000000000644
21
-54.777858453981601
31
4.7739590058882328e-18
0
LINE
5
113
100
AcDbEntity
8
0
100
AcDbLine
10
0.0129999999999218
20
-54.777858453981601
30
0
11
0.22500040956363715
21
-54.777858453981601
31
3.5305160389139991e-17
0
LINE
5
114
100
AcDbEntity
8
0
100
AcDbLine
10
18.873000000000005
20
-54.854058453981608
30
0
11
18.873000000000005
21
-41.204065658571594
31
0
0
LINE
5
115
100
AcDbEntity
8
0
100
AcDbLine
10
18.873000000000005
20
-41.204065658571594
30
0
11
20.580000000000005
21
-41.204065658571594
31
0
0
LINE
5
116
100
AcDbEntity
8
0
100
AcDbLine
10
22.580000000000005
20
-41.204065658571594
30
0
11
20.580000000000016
21
-41.204065658571594
31
-3.3306690738754489e-16
0
LINE
5
117
100
AcDbEntity
8
0
100
AcDbLine
10
22.580000000000009
20
-41.204065658571594
30
0
11
31.320000000000018
21
-41.204065658571594
31
0
0
LINE
5
118
100
AcDbEntity
8
0
100
AcDbLine
10
33.320000000000014
20
-41.204065658571594
30
0
11
31.320000000000029
21
-41.204065658571594
31
-3.3306690738754489e-16
0
LINE
5
119
100
AcDbEntity
8
0
100
AcDbLine
10
33.320000000000022
20
-41.204065658571594
30
0
11
35.027000000000022
21
-41.204065658571594
31
0
0
LINE
5
120
100
AcDbEntity
8
0
100
AcDbLine
10
35.027000000000022
20
-54.854058453981608
30
0
11
35.027000000000022
21
-41.204065658571594
31
0
0
LINE
5
121
100
AcDbEntity
8
0
100
AcDbLine
10
35.027000000000022
20
-54.854058453981608
30
0
11
33.320000000000022
21
-54.854058453981608
31
0
0
LINE
5
122
100
AcDbEntity
8
0
100
AcDbLine
10
31.320000000000022
20
-54.854058453981608
30
0
11
33.320000000000014
21
-54.854058453981608
31
3.3306690738754568e-16
0
LINE
5
123
100
AcDbEntity
8
0
100
AcDbLine
10
31.320000000000018
20
-54.854058453981608
30
0
11
22.580000000000009
21
-54.854058453981608
31
0
0
LINE
5
124
100
AcDbEntity
8
0
100
AcDbLine
10
20.580000000000016
20
-54.854058453981608
30
0
11
22.580000000000005
21
-54.854058453981608
31
3.3306690738754489e-16
0
LINE
5
125
100
AcDbEntity
8
0
100
AcDbLine
10
20.580000000000005
20
-54.854058453981608
30
0
11
18.873000000000005
21
-54.854058453981608
31
0
0
LWPOLYLINE
5
126
100
AcDbEntity
8
0
100
AcDbPolyline
90
4
70
1
43
0.0
10
37.530000000000008
20
-54.777858453981601
10
46.420000000001018
20
-54.777858453981601
10
46.420000000001025
20
-51.347858453981601
10
37.530000000000015
20
-51.347858453981601
0
LINE
5
127
100
AcDbEntity
8
0
100
AcDbLine
10
1.974999863478776
20
-54.777858453981601
30
0
11
1.974999863478776
21
-37.93785845398159
31
0
0
LINE
5
128
100
AcDbEntity
8
0
100
AcDbLine
10
2.1870000000000656
20
-37.937858453981598
30
0
11
1.9749995904363451
21
-37.937858453981598
31
-3.5305160389140829e-17
0
LINE
5
129
100
AcDbEntity
8
0
100
AcDbLine
10
2.1869999999999936
20
-37.937858453981598
30
0
11
2.5749999999999935
21
-37.937858453981598
31
-4.7739590058882328e-18
0
LINE
5
130
100
AcDbEntity
8
0
100
AcDbLine
10
2.5749999999999931
20
-37.937858453981598
30
0
11
16.625000000000011
21
-37.937858453981598
31
0
0
LINE
5
131
100
AcDbEntity
8
0
100
AcDbLine
10
16.625000000000011
20
-37.937858453981598
30
0
11
17.013000000000009
21
-37.937858453981598
31
-4.7739590058882328e-18
0
LINE
5
132
100
AcDbEntity
8
0
100
AcDbLine
10
17.225000409563652
20
-37.937858453981598
30
0
11
17.012999999999934
21
-37.937858453981598
31
-3.5305160389140324e-17
0
LINE
5
133
100
AcDbEntity
8
0
100
AcDbLine
10
17.225000136521324
20
-54.777858453981601
30
0
11
17.225000136521324
21
-37.937858453981598
31
-7.7900014390574875e-32
0
LINE
5
134
100
AcDbEntity
8
0
100
AcDbLine
10
17.012999999999934
20
-54.777858453981601
30
0
11
17.225000409563652
21
-54.777858453981601
31
3.5305160389139954e-17
0
LINE
5
135
100
AcDbEntity
8
0
100
AcDbLine
10
17.013000000000005
20
-54.777858453981601
30
0
11
16.625000000000007
21
-54.777858453981601
31
4.7739590058882328e-18
0
LINE
5
136
100
AcDbEntity
8
0
100
AcDbLine
10
16.625000000000011
20
-54.777858453981601
30
0
11
2.574999999999994
21
-54.777858453981601
31
0
0
LINE
5
137
100
AcDbEntity
8
0
100
AcDbLine
10
2.5749999999999935
20
-54.777858453981601
30
0
11
2.1869999999999936
21
-54.777858453981601
31
4.7739590058882328e-18
0
LINE
5
138
100
AcDbEntity
8
0
100
AcDbLine
10
1.9749995904363451
20
-54.777858453981601
30
0
11
2.1870000000000651
21
-54.777858453981601
31
3.530516038914078e-17
0
LWPOLYLINE
5
139
100
AcDbEntity
8
0
100
AcDbPolyline
90
10
70
1
43
0.0
10
-82.462730230462967
20
60.824058453981593
42
0.41421356237309348
10
-94.662730230462955
20
48.62405845398159
10
-94.662730230462927
20
-2.6645352591003757e-14
10
-94.662730230462913
20
-48.624058453981633
42
0.41421356237309437
10
-82.462730230462938
20
-60.824058453981593
10
82.46273023046291
20
-60.824058453981607
42
0.41421356237309453
10
94.662730230462913
20
-48.624058453981633
10
94.662730230462898
20
-8.8817841970012523e-15
10
94.662730230462898
20
48.62405845398159
42
0.4142135623730957
10
82.462730230462881
20
60.824058453981593
0
ENDSEC
0
SECTION
2
OBJECTS
0
DICTIONARY
5
C
100
AcDbDictionary
3
ACAD_GROUP
350
D
3
ACAD_MLINESTYLE
350
17
0
DICTIONARY
5
D
100
AcDbDictionary
0
DICTIONARY
5
1A
330
C
100
AcDbDictionary
0
DICTIONARY
5
17
100
AcDbDictionary
0
ENDSEC
0
EOF
